<?xml version="1.0" encoding="UTF-8" standalone="no"?>
<!DOCTYPE svg PUBLIC "-//W3C//DTD SVG 1.1//EN"
 "http://www.w3.org/Graphics/SVG/1.1/DTD/svg11.dtd">
<!-- Generated by graphviz version 9.0.0 (20230911.1827)
 -->
<!-- Pages: 1 -->
<svg width="537pt" height="332pt"
 viewBox="0.00 0.00 536.86 332.00" xmlns="http://www.w3.org/2000/svg" xmlns:xlink="http://www.w3.org/1999/xlink">
<g id="graph0" class="graph" transform="scale(1 1) rotate(0) translate(4 328)">
<polygon fill="white" stroke="none" points="-4,4 -4,-328 532.86,-328 532.86,4 -4,4"/>
<!-- [root] aws_iam_role.lambda&#45;role (expand) -->
<g id="node1" class="node">
<title>[root] aws_iam_role.lambda&#45;role (expand)</title>
<polygon fill="none" stroke="black" points="224.56,-108 62.31,-108 62.31,-72 224.56,-72 224.56,-108"/>
<text text-anchor="middle" x="143.43" y="-84.95" font-family="Times,serif" font-size="14.00">aws_iam_role.lambda&#45;role</text>
</g>
<!-- [root] provider[&quot;registry.terraform.io/hashicorp/aws&quot;] -->
<g id="node4" class="node">
<title>[root] provider[&quot;registry.terraform.io/hashicorp/aws&quot;]</title>
<polygon fill="none" stroke="black" points="264.43,-36 0,-18 264.43,0 528.86,-18 264.43,-36"/>
<text text-anchor="middle" x="264.43" y="-12.95" font-family="Times,serif" font-size="14.00">provider[&quot;registry.terraform.io/hashicorp/aws&quot;]</text>
</g>
<!-- [root] aws_iam_role.lambda&#45;role (expand)&#45;&gt;[root] provider[&quot;registry.terraform.io/hashicorp/aws&quot;] -->
<g id="edge1" class="edge">
<title>[root] aws_iam_role.lambda&#45;role (expand)&#45;&gt;[root] provider[&quot;registry.terraform.io/hashicorp/aws&quot;]</title>
<path fill="none" stroke="black" d="M173.65,-71.52C190.04,-62.04 210.41,-50.25 227.71,-40.25"/>
<polygon fill="black" stroke="black" points="229.26,-43.39 236.17,-35.35 225.76,-37.33 229.26,-43.39"/>
</g>
<!-- [root] aws_lambda_function.hello&#45;world&#45;lambda (expand) -->
<g id="node2" class="node">
<title>[root] aws_lambda_function.hello&#45;world&#45;lambda (expand)</title>
<polygon fill="none" stroke="black" points="388.31,-180 140.56,-180 140.56,-144 388.31,-144 388.31,-180"/>
<text text-anchor="middle" x="264.43" y="-156.95" font-family="Times,serif" font-size="14.00">aws_lambda_function.hello&#45;world&#45;lambda</text>
</g>
<!-- [root] aws_lambda_function.hello&#45;world&#45;lambda (expand)&#45;&gt;[root] aws_iam_role.lambda&#45;role (expand) -->
<g id="edge2" class="edge">
<title>[root] aws_lambda_function.hello&#45;world&#45;lambda (expand)&#45;&gt;[root] aws_iam_role.lambda&#45;role (expand)</title>
<path fill="none" stroke="black" d="M234.21,-143.52C218.64,-134.51 199.48,-123.42 182.77,-113.76"/>
<polygon fill="black" stroke="black" points="184.99,-111 174.58,-109.02 181.48,-117.06 184.99,-111"/>
</g>
<!-- [root] aws_lambda_layer_version.instrumentation&#45;layer (expand) -->
<g id="node3" class="node">
<title>[root] aws_lambda_layer_version.instrumentation&#45;layer (expand)</title>
<polygon fill="none" stroke="black" points="528.06,-108 242.81,-108 242.81,-72 528.06,-72 528.06,-108"/>
<text text-anchor="middle" x="385.43" y="-84.95" font-family="Times,serif" font-size="14.00">aws_lambda_layer_version.instrumentation&#45;layer</text>
</g>
<!-- [root] aws_lambda_function.hello&#45;world&#45;lambda (expand)&#45;&gt;[root] aws_lambda_layer_version.instrumentation&#45;layer (expand) -->
<g id="edge3" class="edge">
<title>[root] aws_lambda_function.hello&#45;world&#45;lambda (expand)&#45;&gt;[root] aws_lambda_layer_version.instrumentation&#45;layer (expand)</title>
<path fill="none" stroke="black" d="M294.65,-143.52C310.22,-134.51 329.38,-123.42 346.09,-113.76"/>
<polygon fill="black" stroke="black" points="347.38,-117.06 354.28,-109.02 343.88,-111 347.38,-117.06"/>
</g>
<!-- [root] aws_lambda_layer_version.instrumentation&#45;layer (expand)&#45;&gt;[root] provider[&quot;registry.terraform.io/hashicorp/aws&quot;] -->
<g id="edge4" class="edge">
<title>[root] aws_lambda_layer_version.instrumentation&#45;layer (expand)&#45;&gt;[root] provider[&quot;registry.terraform.io/hashicorp/aws&quot;]</title>
<path fill="none" stroke="black" d="M355.21,-71.52C338.83,-62.04 318.45,-50.25 301.16,-40.25"/>
<polygon fill="black" stroke="black" points="303.1,-37.33 292.69,-35.35 299.6,-43.39 303.1,-37.33"/>
</g>
<!-- [root] provider[&quot;registry.terraform.io/hashicorp/aws&quot;] (close) -->
<g id="node5" class="node">
<title>[root] provider[&quot;registry.terraform.io/hashicorp/aws&quot;] (close)</title>
<ellipse fill="none" stroke="black" cx="264.43" cy="-234" rx="238.16" ry="18"/>
<text text-anchor="middle" x="264.43" y="-228.95" font-family="Times,serif" font-size="14.00">[root] provider[&quot;registry.terraform.io/hashicorp/aws&quot;] (close)</text>
</g>
<!-- [root] provider[&quot;registry.terraform.io/hashicorp/aws&quot;] (close)&#45;&gt;[root] aws_lambda_function.hello&#45;world&#45;lambda (expand) -->
<g id="edge5" class="edge">
<title>[root] provider[&quot;registry.terraform.io/hashicorp/aws&quot;] (close)&#45;&gt;[root] aws_lambda_function.hello&#45;world&#45;lambda (expand)</title>
<path fill="none" stroke="black" d="M264.43,-215.7C264.43,-208.41 264.43,-199.73 264.43,-191.54"/>
<polygon fill="black" stroke="black" points="267.93,-191.62 264.43,-181.62 260.93,-191.62 267.93,-191.62"/>
</g>
<!-- [root] root -->
<g id="node6" class="node">
<title>[root] root</title>
<ellipse fill="none" stroke="black" cx="264.43" cy="-306" rx="49.3" ry="18"/>
<text text-anchor="middle" x="264.43" y="-300.95" font-family="Times,serif" font-size="14.00">[root] root</text>
</g>
<!-- [root] root&#45;&gt;[root] provider[&quot;registry.terraform.io/hashicorp/aws&quot;] (close) -->
<g id="edge6" class="edge">
<title>[root] root&#45;&gt;[root] provider[&quot;registry.terraform.io/hashicorp/aws&quot;] (close)</title>
<path fill="none" stroke="black" d="M264.43,-287.7C264.43,-280.41 264.43,-271.73 264.43,-263.54"/>
<polygon fill="black" stroke="black" points="267.93,-263.62 264.43,-253.62 260.93,-263.62 267.93,-263.62"/>
</g>
</g>
</svg>
